<?xml version="1.0" standalone="no"?>
<!DOCTYPE svg PUBLIC "-//W3C//DTD SVG 20010904//EN"
 "http://www.w3.org/TR/2001/REC-SVG-20010904/DTD/svg10.dtd">
<svg version="1.0" xmlns="http://www.w3.org/2000/svg"
 width="50.000000pt" height="50.000000pt" viewBox="0 0 50.000000 50.000000"
 preserveAspectRatio="xMidYMid meet">

<g transform="translate(0.000000,50.000000) scale(0.100000,-0.100000)"
fill="#000000" stroke="none">
<path d="M358 416 c-76 -32 -140 -77 -185 -131 -20 -25 -46 -45 -56 -45 -10 0
-32 -7 -48 -16 -26 -13 -28 -18 -18 -30 9 -11 22 -14 41 -10 24 5 28 2 28 -17
0 -28 18 -47 43 -47 15 0 18 -5 14 -22 -6 -22 7 -48 24 -48 11 0 39 54 39 75
0 9 24 38 53 65 53 48 103 128 132 209 17 49 13 50 -67 17z m21 -40 c15 -18 3
-46 -25 -56 -12 -5 -24 -19 -26 -32 -4 -31 -52 -38 -67 -9 -14 26 -4 50 24 57
12 3 27 16 34 30 12 26 42 32 60 10z"/>
<path d="M71 126 c-19 -11 -21 -14 -7 -19 10 -4 13 -12 9 -23 -5 -12 -3 -15 6
-9 8 4 17 2 22 -6 8 -12 11 -12 19 1 27 41 -6 78 -49 56z"/>
</g>
</svg>
